<mxfile host="app.diagrams.net" modified="2020-09-15T15:38:01.665Z" agent="5.0 (Windows NT 10.0; Win64; x64) AppleWebKit/537.36 (KHTML, like Gecko) Chrome/84.0.4147.89 Safari/537.36" etag="2cRw_4xcsWCqTZ7zKaWS" version="13.6.10" type="github">
  <diagram id="-IBCfol2DhCwTar03_mY" name="Page-1">
    <mxGraphModel dx="1038" dy="617" grid="1" gridSize="10" guides="1" tooltips="1" connect="1" arrows="1" fold="1" page="1" pageScale="1" pageWidth="10000" pageHeight="10000" math="0" shadow="0">
      <root>
        <mxCell id="0" />
        <mxCell id="1" parent="0" />
        <mxCell id="baoDK4Zk-VivEnSaUOu_-2" value="&lt;font style=&quot;font-size: 16px&quot;&gt;Match&lt;/font&gt;" style="rounded=0;whiteSpace=wrap;html=1;strokeWidth=2;fillColor=#d5e8d4;strokeColor=#82b366;sketch=1;" parent="1" vertex="1">
          <mxGeometry x="220" y="290" width="160" height="80" as="geometry" />
        </mxCell>
        <mxCell id="baoDK4Zk-VivEnSaUOu_-3" value="&lt;font style=&quot;font-size: 15px&quot;&gt;allied team score&lt;/font&gt;" style="ellipse;whiteSpace=wrap;html=1;strokeWidth=2;fillColor=#d5e8d4;strokeColor=#82b366;sketch=1;" parent="1" vertex="1">
          <mxGeometry x="340" y="150" width="100" height="70" as="geometry" />
        </mxCell>
        <mxCell id="baoDK4Zk-VivEnSaUOu_-4" value="&lt;font style=&quot;font-size: 15px&quot;&gt;stadium&lt;/font&gt;" style="ellipse;whiteSpace=wrap;html=1;strokeWidth=2;fillColor=#d5e8d4;strokeColor=#82b366;sketch=1;" parent="1" vertex="1">
          <mxGeometry x="180" y="160" width="90" height="60" as="geometry" />
        </mxCell>
        <mxCell id="baoDK4Zk-VivEnSaUOu_-5" value="&lt;font style=&quot;font-size: 15px&quot;&gt;time and date&lt;/font&gt;" style="ellipse;whiteSpace=wrap;html=1;strokeWidth=2;fillColor=#d5e8d4;strokeColor=#82b366;sketch=1;" parent="1" vertex="1">
          <mxGeometry x="40" y="290" width="90" height="60" as="geometry" />
        </mxCell>
        <mxCell id="baoDK4Zk-VivEnSaUOu_-7" value="&lt;font style=&quot;font-size: 15px&quot;&gt;opponent team&lt;/font&gt;" style="ellipse;whiteSpace=wrap;html=1;strokeWidth=2;fillColor=#d5e8d4;strokeColor=#82b366;sketch=1;" parent="1" vertex="1">
          <mxGeometry x="130" y="430" width="90" height="60" as="geometry" />
        </mxCell>
        <mxCell id="baoDK4Zk-VivEnSaUOu_-8" value="&lt;font style=&quot;font-size: 15px&quot;&gt;opponent score&lt;/font&gt;" style="ellipse;whiteSpace=wrap;html=1;strokeWidth=2;fillColor=#d5e8d4;strokeColor=#82b366;sketch=1;" parent="1" vertex="1">
          <mxGeometry x="290" y="430" width="100" height="60" as="geometry" />
        </mxCell>
        <mxCell id="baoDK4Zk-VivEnSaUOu_-10" value="&lt;font style=&quot;font-size: 17px&quot;&gt;Matches played&lt;/font&gt;" style="rhombus;whiteSpace=wrap;html=1;strokeWidth=2;fillColor=#d5e8d4;strokeColor=#82b366;sketch=1;" parent="1" vertex="1">
          <mxGeometry x="480" y="270" width="120" height="120" as="geometry" />
        </mxCell>
        <mxCell id="baoDK4Zk-VivEnSaUOu_-11" value="&lt;font style=&quot;font-size: 15px&quot;&gt;Total score&lt;/font&gt;" style="ellipse;whiteSpace=wrap;html=1;strokeWidth=2;fillColor=#d5e8d4;strokeColor=#82b366;sketch=1;" parent="1" vertex="1">
          <mxGeometry x="480" y="430" width="120" height="50" as="geometry" />
        </mxCell>
        <mxCell id="baoDK4Zk-VivEnSaUOu_-12" value="&lt;font style=&quot;font-size: 15px&quot;&gt;Players&lt;/font&gt;" style="rounded=0;whiteSpace=wrap;html=1;strokeWidth=2;fillColor=#d5e8d4;strokeColor=#82b366;sketch=1;" parent="1" vertex="1">
          <mxGeometry x="660" y="290" width="150" height="80" as="geometry" />
        </mxCell>
        <mxCell id="baoDK4Zk-VivEnSaUOu_-13" value="&lt;font style=&quot;font-size: 15px&quot;&gt;Name&lt;/font&gt;" style="ellipse;whiteSpace=wrap;html=1;strokeWidth=2;fillColor=#d5e8d4;strokeColor=#82b366;sketch=1;" parent="1" vertex="1">
          <mxGeometry x="682.5" y="180" width="105" height="60" as="geometry" />
        </mxCell>
        <mxCell id="baoDK4Zk-VivEnSaUOu_-14" value="&lt;font style=&quot;font-size: 15px&quot;&gt;Age&lt;/font&gt;" style="ellipse;whiteSpace=wrap;html=1;strokeWidth=2;fillColor=#d5e8d4;strokeColor=#82b366;sketch=1;" parent="1" vertex="1">
          <mxGeometry x="682.5" y="410" width="105" height="60" as="geometry" />
        </mxCell>
        <mxCell id="baoDK4Zk-VivEnSaUOu_-17" value="" style="endArrow=none;html=1;exitX=0.5;exitY=0;exitDx=0;exitDy=0;entryX=0;entryY=1;entryDx=0;entryDy=0;strokeWidth=2;fillColor=#d5e8d4;strokeColor=#82b366;sketch=1;" parent="1" source="baoDK4Zk-VivEnSaUOu_-7" target="baoDK4Zk-VivEnSaUOu_-2" edge="1">
          <mxGeometry width="50" height="50" relative="1" as="geometry">
            <mxPoint x="180" y="410" as="sourcePoint" />
            <mxPoint x="240" y="360" as="targetPoint" />
          </mxGeometry>
        </mxCell>
        <mxCell id="baoDK4Zk-VivEnSaUOu_-19" value="" style="endArrow=none;html=1;entryX=0.5;entryY=0;entryDx=0;entryDy=0;strokeWidth=2;fillColor=#d5e8d4;strokeColor=#82b366;sketch=1;" parent="1" target="baoDK4Zk-VivEnSaUOu_-8" edge="1">
          <mxGeometry width="50" height="50" relative="1" as="geometry">
            <mxPoint x="340" y="370" as="sourcePoint" />
            <mxPoint x="350" y="390" as="targetPoint" />
          </mxGeometry>
        </mxCell>
        <mxCell id="baoDK4Zk-VivEnSaUOu_-20" value="" style="endArrow=none;html=1;strokeWidth=2;fillColor=#d5e8d4;strokeColor=#82b366;sketch=1;" parent="1" source="baoDK4Zk-VivEnSaUOu_-5" edge="1">
          <mxGeometry width="50" height="50" relative="1" as="geometry">
            <mxPoint x="180" y="300" as="sourcePoint" />
            <mxPoint x="220" y="320" as="targetPoint" />
          </mxGeometry>
        </mxCell>
        <mxCell id="baoDK4Zk-VivEnSaUOu_-21" value="" style="endArrow=none;html=1;exitX=0.75;exitY=0;exitDx=0;exitDy=0;entryX=0.349;entryY=0.998;entryDx=0;entryDy=0;entryPerimeter=0;strokeWidth=2;fillColor=#d5e8d4;strokeColor=#82b366;sketch=1;" parent="1" source="baoDK4Zk-VivEnSaUOu_-2" target="baoDK4Zk-VivEnSaUOu_-3" edge="1">
          <mxGeometry width="50" height="50" relative="1" as="geometry">
            <mxPoint x="380" y="310" as="sourcePoint" />
            <mxPoint x="386" y="252" as="targetPoint" />
          </mxGeometry>
        </mxCell>
        <mxCell id="baoDK4Zk-VivEnSaUOu_-22" value="" style="endArrow=none;html=1;exitX=0.25;exitY=0;exitDx=0;exitDy=0;entryX=0.5;entryY=1;entryDx=0;entryDy=0;strokeWidth=2;fillColor=#d5e8d4;strokeColor=#82b366;sketch=1;" parent="1" source="baoDK4Zk-VivEnSaUOu_-2" target="baoDK4Zk-VivEnSaUOu_-4" edge="1">
          <mxGeometry width="50" height="50" relative="1" as="geometry">
            <mxPoint x="290" y="290" as="sourcePoint" />
            <mxPoint x="340" y="240" as="targetPoint" />
          </mxGeometry>
        </mxCell>
        <mxCell id="baoDK4Zk-VivEnSaUOu_-23" value="" style="endArrow=none;html=1;exitX=1;exitY=0.5;exitDx=0;exitDy=0;entryX=0;entryY=0.5;entryDx=0;entryDy=0;strokeWidth=2;fillColor=#d5e8d4;strokeColor=#82b366;sketch=1;" parent="1" source="baoDK4Zk-VivEnSaUOu_-2" target="baoDK4Zk-VivEnSaUOu_-10" edge="1">
          <mxGeometry width="50" height="50" relative="1" as="geometry">
            <mxPoint x="410" y="340" as="sourcePoint" />
            <mxPoint x="460" y="290" as="targetPoint" />
          </mxGeometry>
        </mxCell>
        <mxCell id="baoDK4Zk-VivEnSaUOu_-24" value="" style="endArrow=none;html=1;exitX=0.5;exitY=0;exitDx=0;exitDy=0;entryX=0.5;entryY=1;entryDx=0;entryDy=0;strokeWidth=2;fillColor=#d5e8d4;strokeColor=#82b366;sketch=1;" parent="1" source="baoDK4Zk-VivEnSaUOu_-11" target="baoDK4Zk-VivEnSaUOu_-10" edge="1">
          <mxGeometry width="50" height="50" relative="1" as="geometry">
            <mxPoint x="580" y="420" as="sourcePoint" />
            <mxPoint x="630" y="370" as="targetPoint" />
          </mxGeometry>
        </mxCell>
        <mxCell id="baoDK4Zk-VivEnSaUOu_-25" value="" style="endArrow=none;html=1;exitX=1;exitY=0.5;exitDx=0;exitDy=0;entryX=0;entryY=0.5;entryDx=0;entryDy=0;strokeWidth=2;fillColor=#d5e8d4;strokeColor=#82b366;sketch=1;" parent="1" source="baoDK4Zk-VivEnSaUOu_-10" target="baoDK4Zk-VivEnSaUOu_-12" edge="1">
          <mxGeometry width="50" height="50" relative="1" as="geometry">
            <mxPoint x="630" y="350" as="sourcePoint" />
            <mxPoint x="680" y="300" as="targetPoint" />
          </mxGeometry>
        </mxCell>
        <mxCell id="baoDK4Zk-VivEnSaUOu_-26" value="" style="endArrow=none;html=1;entryX=0.5;entryY=1;entryDx=0;entryDy=0;exitX=0.5;exitY=0;exitDx=0;exitDy=0;strokeWidth=2;fillColor=#d5e8d4;strokeColor=#82b366;sketch=1;" parent="1" source="baoDK4Zk-VivEnSaUOu_-12" target="baoDK4Zk-VivEnSaUOu_-13" edge="1">
          <mxGeometry width="50" height="50" relative="1" as="geometry">
            <mxPoint x="720" y="330" as="sourcePoint" />
            <mxPoint x="770" y="280" as="targetPoint" />
          </mxGeometry>
        </mxCell>
        <mxCell id="baoDK4Zk-VivEnSaUOu_-27" value="" style="endArrow=none;html=1;exitX=0.5;exitY=0;exitDx=0;exitDy=0;entryX=0.5;entryY=1;entryDx=0;entryDy=0;strokeWidth=2;fillColor=#d5e8d4;strokeColor=#82b366;sketch=1;" parent="1" source="baoDK4Zk-VivEnSaUOu_-14" target="baoDK4Zk-VivEnSaUOu_-12" edge="1">
          <mxGeometry width="50" height="50" relative="1" as="geometry">
            <mxPoint x="810" y="410" as="sourcePoint" />
            <mxPoint x="860" y="360" as="targetPoint" />
          </mxGeometry>
        </mxCell>
      </root>
    </mxGraphModel>
  </diagram>
</mxfile>
